HIERARCHY
ROOT hip
{
  OFFSET 0 0 0
  CHANNELS 6 Xposition Yposition Zposition Zrotation Yrotation Xrotation
  JOINT abdomen
  {
    OFFSET 0 20.6881 -0.73152
    CHANNELS 3 Zrotation Xrotation Yrotation
    JOINT chest
    {
      OFFSET 0 11.7043 -0.48768
      CHANNELS 3 Zrotation Xrotation Yrotation
      JOINT neck
      {
        OFFSET 0 22.1894 -2.19456
        CHANNELS 3 Zrotation Xrotation Yrotation
        JOINT head
        {
          OFFSET -0.24384 7.07133 1.2192
          CHANNELS 3 Zrotation Xrotation Yrotation
          JOINT leftEye
          {
            OFFSET 4.14528 8.04674 8.04672
            CHANNELS 3 Zrotation Xrotation Yrotation
            End Site
            {
              OFFSET 1 0 0
            }
          }
          JOINT rightEye
          {
            OFFSET -3.6576 8.04674 8.04672
            CHANNELS 3 Zrotation Xrotation Yrotation
            End Site
            {
              OFFSET 1 0 0
            }
          }
        }
      }
      JOINT rCollar
      {
        OFFSET -2.68224 19.2634 -4.8768
        CHANNELS 3 Zrotation Xrotation Yrotation
        JOINT rShldr
        {
          OFFSET -8.77824 -1.95073 1.46304
          CHANNELS 3 Zrotation Xrotation Yrotation
          JOINT rForeArm
          {
            OFFSET -28.1742 -1.7115 0.48768
            CHANNELS 3 Zrotation Xrotation Yrotation
            JOINT rHand
            {
              OFFSET -22.5879 0.773209 7.07136
              CHANNELS 3 Zrotation Xrotation Yrotation
              JOINT rThumb1
              {
                OFFSET -1.2192 -0.487915 3.41376
                CHANNELS 3 Zrotation Xrotation Yrotation
                JOINT rThumb2
                {
                  OFFSET -3.37035 -0.52449 3.41376
                  CHANNELS 3 Zrotation Xrotation Yrotation
                  End Site
                  {
                    OFFSET -1.78271 -1.18214 1.43049
                  }
                }
              }
              JOINT rIndex1
              {
                OFFSET -7.75947 0.938293 5.60832
                CHANNELS 3 Zrotation Xrotation Yrotation
                JOINT rIndex2
                {
                  OFFSET -2.54057 -0.884171 1.56538
                  CHANNELS 3 Zrotation Xrotation Yrotation
                  End Site
                  {
                    OFFSET -1.62519 -0.234802 1.16502
                  }
                }
              }
              JOINT rMid1
              {
                OFFSET -8.24714 1.18213 3.41376
                CHANNELS 3 Zrotation Xrotation Yrotation
                JOINT rMid2
                {
                  OFFSET -3.10165 -0.590103 1.0647
                  CHANNELS 3 Zrotation Xrotation Yrotation
                  End Site
                  {
                    OFFSET -2.48547 -0.328903 0.83742
                  }
                }
              }
              JOINT rRing1
              {
                OFFSET -8.82822 0.546677 1.51678
                CHANNELS 3 Zrotation Xrotation Yrotation
                JOINT rRing2
                {
                  OFFSET -2.60934 -0.819778 -0.0198488
                  CHANNELS 3 Zrotation Xrotation Yrotation
                  End Site
                  {
                    OFFSET -2.33842 -0.294052 0.168128
                  }
                }
              }
              JOINT rPinky1
              {
                OFFSET -8.27202 -0.0477905 -0.4584
                CHANNELS 3 Zrotation Xrotation Yrotation
                JOINT rPinky2
                {
                  OFFSET -1.82734 -0.647385 -0.700984
                  CHANNELS 3 Zrotation Xrotation Yrotation
                  End Site
                  {
                    OFFSET -1.69225 -0.51767 -0.607171
                  }
                }
              }
            }
          }
        }
      }
      JOINT lCollar
      {
        OFFSET 2.68224 19.2634 -4.8768
        CHANNELS 3 Zrotation Xrotation Yrotation
        JOINT lShldr
        {
          OFFSET 8.77824 -1.95073 1.46304
          CHANNELS 3 Zrotation Xrotation Yrotation
          JOINT lForeArm
          {
            OFFSET 28.1742 -1.7115 0.48768
            CHANNELS 3 Zrotation Xrotation Yrotation
            JOINT lHand
            {
              OFFSET 22.5879 0.773209 7.07136
              CHANNELS 3 Zrotation Xrotation Yrotation
              JOINT lThumb1
              {
                OFFSET 1.2192 -0.487915 3.41376
                CHANNELS 3 Zrotation Xrotation Yrotation
                JOINT lThumb2
                {
                  OFFSET 3.37035 -0.52449 3.41376
                  CHANNELS 3 Zrotation Xrotation Yrotation
                  End Site
                  {
                    OFFSET 1.78271 -1.18214 1.43049
                  }
                }
              }
              JOINT lIndex1
              {
                OFFSET 7.75947 0.938293 5.60832
                CHANNELS 3 Zrotation Xrotation Yrotation
                JOINT lIndex2
                {
                  OFFSET 2.54057 -0.884171 1.56538
                  CHANNELS 3 Zrotation Xrotation Yrotation
                  End Site
                  {
                    OFFSET 1.62519 -0.234802 1.16502
                  }
                }
              }
              JOINT lMid1
              {
                OFFSET 8.24714 1.18213 3.41376
                CHANNELS 3 Zrotation Xrotation Yrotation
                JOINT lMid2
                {
                  OFFSET 3.10165 -0.590103 1.0647
                  CHANNELS 3 Zrotation Xrotation Yrotation
                  End Site
                  {
                    OFFSET 2.48547 -0.328903 0.83742
                  }
                }
              }
              JOINT lRing1
              {
                OFFSET 8.82822 0.546677 1.51678
                CHANNELS 3 Zrotation Xrotation Yrotation
                JOINT lRing2
                {
                  OFFSET 2.60934 -0.819778 -0.0198488
                  CHANNELS 3 Zrotation Xrotation Yrotation
                  End Site
                  {
                    OFFSET 2.33842 -0.294052 0.168128
                  }
                }
              }
              JOINT lPinky1
              {
                OFFSET 8.27202 -0.0477905 -0.4584
                CHANNELS 3 Zrotation Xrotation Yrotation
                JOINT lPinky2
                {
                  OFFSET 1.82734 -0.647385 -0.700984
                  CHANNELS 3 Zrotation Xrotation Yrotation
                  End Site
                  {
                    OFFSET 1.69225 -0.51767 -0.607171
                  }
                }
              }
            }
          }
        }
      }
    }
  }
  JOINT rButtock
  {
    OFFSET -8.77824 4.35084 1.2192
    CHANNELS 3 Zrotation Xrotation Yrotation
    JOINT rThigh
    {
      OFFSET 0 -1.70687 -2.19456
      CHANNELS 3 Zrotation Xrotation Yrotation
      JOINT rShin
      {
        OFFSET 0 -36.8199 0.73152
        CHANNELS 3 Zrotation Xrotation Yrotation
        JOINT rFoot
        {
          OFFSET 0.73152 -45.1104 -5.12064
          CHANNELS 3 Zrotation Xrotation Yrotation
          End Site
          {
            OFFSET -1.1221 -3.69964 12.103
          }
        }
      }
    }
  }
  JOINT lButtock
  {
    OFFSET 8.77824 4.35084 1.2192
    CHANNELS 3 Zrotation Xrotation Yrotation
    JOINT lThigh
    {
      OFFSET 0 -1.70687 -2.19456
      CHANNELS 3 Zrotation Xrotation Yrotation
      JOINT lShin
      {
        OFFSET 0 -36.8199 0.73152
        CHANNELS 3 Zrotation Xrotation Yrotation
        JOINT lFoot
        {
          OFFSET -0.73152 -45.1104 -5.12064
          CHANNELS 3 Zrotation Xrotation Yrotation
          End Site
          {
            OFFSET 1.1221 -3.69964 12.103
          }
        }
      }
    }
  }
}
MOTION
Frames:	8
Frame Time:	0.00833333
-23.7105 57.7743 -32.7316 -171.713 -87.1392 184.003 -4.30534 40.0455 0.97517 -2.87307 -10.0473 -0.838528 1.46108 11.8789 0.751497 0.872513 -53.3645 0.773194 -0.0 0.0 0.0 -0.0 0.0 0.0 -1.67478e-15 -2.89309e-12 -1.3908e-13 72.3123 31.0304 12.8827 -20.5958 -13.7801 40.1468 -0.129837 -10.2198 -1.45188 -1.21254e-09 -2.35553e-09 1.29588e-09 -2.11541e-09 -4.07375e-09 2.23208e-09 -1.21253e-09 -2.35552e-09 1.29586e-09 7.73091 5.47488 0.417314 -1.21254e-09 -2.35552e-09 1.29588e-09 2.90554 0.965183 0.102902 -1.21253e-09 -2.35553e-09 1.29587e-09 10.2786 0.731801 0.0259123 -1.21254e-09 -2.35552e-09 1.29588e-09 2.22167 -0.733487 -0.20892 -1.79789e-15 -2.89308e-12 -1.39416e-13 -69.9832 24.8981 -10.8589 18.7839 -11.555 -35.8033 0.981405 -26.9397 4.09571 5.73443e-10 -1.5633e-09 -4.99847e-10 1.01586e-09 -2.69648e-09 -8.54703e-10 5.73439e-10 -1.5633e-09 -4.99813e-10 -7.73091 5.47488 -0.417314 5.73443e-10 -1.5633e-09 -4.99839e-10 -2.90554 0.965183 -0.102902 5.73442e-10 -1.5633e-09 -4.99841e-10 -10.2786 0.731801 -0.0259123 5.73446e-10 -1.5633e-09 -4.99845e-10 -2.22167 -0.733487 0.20892 -2.03217e-16 0.0 -3.88251e-19 -1.55299 -44.3511 -0.334096 -104.438 88.8752 104.723 -0.139832 -17.4317 0.507642 2.03217e-16 0.0 3.88251e-19 2.88837 -74.8517 7.50028 1.09334 56.2968 -0.243588 1.45424 -7.1283 6.96544
-24.4327 57.8129 -32.5619 -173.554 -87.0334 185.878 -4.34699 39.9894 0.956839 -2.83679 -10.0278 -0.853568 1.46106 11.9237 0.793995 0.70431 -53.3554 0.788068 -0.0 0.0 0.0 -0.0 0.0 0.0 7.55703e-15 -3.09766e-12 -1.48036e-13 72.3106 30.9818 12.9414 -20.5787 -13.7574 40.1039 -0.129982 -10.2254 -1.45269 -8.50123e-10 -1.52413e-09 8.13461e-10 -1.48201e-09 -2.63509e-09 1.39993e-09 -8.50119e-10 -1.52413e-09 8.13448e-10 7.73091 5.47488 0.417314 -8.50126e-10 -1.52413e-09 8.13466e-10 2.90554 0.965183 0.102902 -8.50115e-10 -1.52413e-09 8.13456e-10 10.2786 0.731801 0.0259123 -8.50129e-10 -1.52413e-09 8.13462e-10 2.22167 -0.733487 -0.20892 7.50139e-15 -3.09766e-12 -1.48343e-13 -69.9206 24.8607 -10.9176 18.7609 -11.5289 -35.7504 0.986943 -27.0085 4.10792 2.62179e-10 -1.04701e-09 -2.39993e-10 4.68531e-10 -1.80671e-09 -4.10595e-10 2.62176e-10 -1.047e-09 -2.39967e-10 -7.73091 5.47488 -0.417314 2.62179e-10 -1.047e-09 -2.39987e-10 -2.90554 0.965183 -0.102902 2.62176e-10 -1.047e-09 -2.39988e-10 -10.2786 0.731801 -0.0259123 2.62181e-10 -1.047e-09 -2.39993e-10 -2.22167 -0.733487 0.20892 -2.03217e-16 0.0 -3.88251e-19 -2.14964 -44.2394 -0.664104 -127.733 88.6129 128.046 -0.0945178 -15.9898 0.767488 2.03217e-16 0.0 3.88251e-19 3.35309 -74.7077 8.3908 1.12766 56.9403 -0.302424 1.35493 -7.18363 6.4141
-25.148 57.8585 -32.3842 -175.903 -86.9128 188.308 -4.39661 39.9147 0.92995 -2.78903 -10.0056 -0.869737 1.4532 11.9593 0.835246 0.548011 -53.3146 0.808198 -0.0 0.0 0.0 -0.0 0.0 0.0 2.06784e-14 -3.11771e-12 -1.45007e-13 72.3042 30.9334 13.013 -20.5578 -13.7299 40.0518 -0.129996 -10.226 -1.45278 -3.90585e-10 -4.33588e-10 1.93266e-10 -6.78643e-10 -7.48054e-10 3.3018e-10 -3.9058e-10 -4.33588e-10 1.93256e-10 7.73091 5.47488 0.417314 -3.90586e-10 -4.33591e-10 1.93273e-10 2.90554 0.965183 0.102902 -3.90574e-10 -4.3359e-10 1.93264e-10 10.2786 0.731801 0.0259123 -3.90591e-10 -4.33586e-10 1.93271e-10 2.22167 -0.733487 -0.20892 2.06889e-14 -3.11771e-12 -1.45281e-13 -69.8594 24.8195 -10.9752 18.7416 -11.5068 -35.7058 0.992761 -27.0805 4.12071 -1.1874e-10 -3.66324e-10 8.06146e-11 -2.01809e-10 -6.33402e-10 1.37385e-10 -1.18741e-10 -3.66321e-10 8.06311e-11 -7.73091 5.47488 -0.417314 -1.1874e-10 -3.66322e-10 8.06176e-11 -2.90554 0.965183 -0.102902 -1.18744e-10 -3.66322e-10 8.0617e-11 -10.2786 0.731801 -0.0259123 -1.18737e-10 -3.66321e-10 8.06107e-11 -2.22167 -0.733487 0.20892 -2.03217e-16 0.0 -3.88251e-19 -2.77668 -44.2073 -1.00645 -143.458 88.143 143.802 -0.0782488 -14.4146 0.973823 2.03217e-16 0.0 3.88251e-19 3.85624 -74.5407 9.36394 1.15989 57.5508 -0.363372 1.25129 -7.29045 5.80239
-25.8659 57.9122 -32.2036 -178.319 -86.7738 190.821 -4.42362 39.8511 0.907145 -2.73639 -9.9977 -0.882338 1.4385 11.9835 0.873129 0.439884 -53.2514 0.845981 -0.0 0.0 0.0 -0.0 0.0 0.0 2.90013e-14 -2.9932e-12 -1.34627e-13 72.3043 30.886 13.0731 -20.5433 -13.7108 40.0158 -0.12991 -10.2226 -1.4523 1.85983e-11 5.82528e-10 -3.59352e-10 3.67453e-11 1.01e-09 -6.22804e-10 1.86031e-11 5.82526e-10 -3.59358e-10 7.73091 5.47488 0.417314 1.85975e-11 5.82524e-10 -3.59342e-10 2.90554 0.965183 0.102902 1.86089e-11 5.82525e-10 -3.5935e-10 10.2786 0.731801 0.0259123 1.85915e-11 5.82528e-10 -3.59342e-10 2.22167 -0.733487 -0.20892 2.90458e-14 -2.9932e-12 -1.34875e-13 -69.7953 24.7892 -11.0266 18.7295 -11.4931 -35.6781 0.998713 -27.1539 4.13377 -4.24e-10 2.30825e-10 3.16532e-10 -7.39279e-10 3.95782e-10 5.40089e-10 -4.24e-10 2.30827e-10 3.16542e-10 -7.73091 5.47488 -0.417314 -4.23999e-10 2.30826e-10 3.16532e-10 -2.90554 0.965183 -0.102902 -4.24005e-10 2.30827e-10 3.16533e-10 -10.2786 0.731801 -0.0259123 -4.23998e-10 2.30828e-10 3.16526e-10 -2.22167 -0.733487 0.20892 -2.03217e-16 0.0 -3.88251e-19 -3.37021 -44.2597 -1.3235 -153.325 87.5162 153.703 -0.0908891 -12.7118 1.1122 2.03217e-16 0.0 3.88251e-19 4.45252 -74.3475 10.4062 1.19084 58.1613 -0.432319 1.16957 -7.46064 5.26812
-26.5954 57.9748 -32.0281 -180.371 -86.627 192.955 -4.4246 39.802 0.88991 -2.68118 -10.0094 -0.891034 1.41189 11.9908 0.907073 0.398411 -53.1463 0.910613 -0.0 0.0 0.0 -0.0 0.0 0.0 2.8879e-14 -2.59994e-12 -1.11138e-13 72.3091 30.8388 13.1266 -20.5327 -13.6968 39.9895 -0.129437 -10.2042 -1.44962 4.90105e-10 1.80893e-09 -9.81862e-10 8.60912e-10 3.13142e-09 -1.69584e-09 4.90108e-10 1.80893e-09 -9.81864e-10 7.73091 5.47488 0.417314 4.90104e-10 1.80893e-09 -9.81851e-10 2.90554 0.965183 0.102902 4.90113e-10 1.80893e-09 -9.81857e-10 10.2786 0.731801 0.0259123 4.90098e-10 1.80893e-09 -9.81848e-10 2.22167 -0.733487 -0.20892 2.89103e-14 -2.59994e-12 -1.11368e-13 -69.732 24.7696 -11.0609 18.724 -11.4867 -35.6654 1.00519 -27.2336 4.14796 -6.8203e-10 8.74533e-10 4.89964e-10 -1.19483e-09 1.50508e-09 8.35428e-10 -6.8203e-10 8.74534e-10 4.8997e-10 -7.73091 5.47488 -0.417314 -6.82029e-10 8.74533e-10 4.89961e-10 -2.90554 0.965183 -0.102902 -6.82035e-10 8.74534e-10 4.89964e-10 -10.2786 0.731801 -0.0259123 -6.82029e-10 8.74536e-10 4.89957e-10 -2.22167 -0.733487 0.20892 -2.03217e-16 0.0 -3.88251e-19 -3.92548 -44.3961 -1.60661 -159.73 86.7508 160.148 -0.127702 -10.8621 1.18487 2.03217e-16 0.0 3.88251e-19 5.20118 -74.1293 11.5729 1.22221 58.7866 -0.511773 1.11632 -7.70199 4.84668
-27.3385 58.0481 -31.8634 -181.817 -86.4837 194.461 -4.4143 39.7532 0.872135 -2.61971 -10.0314 -0.898029 1.37468 11.9839 0.938199 0.400793 -53.0017 0.993107 -0.0 0.0 0.0 -0.0 0.0 0.0 2.53884e-14 -1.96156e-12 -7.44014e-14 72.3143 30.7917 13.1827 -20.5223 -13.683 39.9638 -0.128664 -10.1738 -1.44521 1.05192e-09 3.29898e-09 -1.71971e-09 1.84292e-09 5.7087e-09 -2.9675e-09 1.05192e-09 3.29897e-09 -1.71971e-09 7.73091 5.47488 0.417314 1.05192e-09 3.29897e-09 -1.7197e-09 2.90554 0.965183 0.102902 1.05193e-09 3.29898e-09 -1.7197e-09 10.2786 0.731801 0.0259123 1.05192e-09 3.29898e-09 -1.71969e-09 2.22167 -0.733487 -0.20892 2.53779e-14 -1.96156e-12 -7.46126e-14 -69.6704 24.7542 -11.0838 18.7235 -11.4862 -35.6644 1.01215 -27.3188 4.16315 -9.47939e-10 1.63162e-09 6.58151e-10 -1.66519e-09 2.80981e-09 1.1215e-09 -9.47938e-10 1.63162e-09 6.58155e-10 -7.73091 5.47488 -0.417314 -9.47937e-10 1.63162e-09 6.58143e-10 -2.90554 0.965183 -0.102902 -9.47943e-10 1.63162e-09 6.58151e-10 -10.2786 0.731801 -0.0259123 -9.47937e-10 1.63162e-09 6.58143e-10 -2.22167 -0.733487 0.20892 -2.03217e-16 0.0 -3.88251e-19 -4.47553 -44.6148 -1.87755 -163.995 85.8722 164.457 -0.181833 -8.86952 1.20035 2.03217e-16 0.0 3.88251e-19 6.04271 -73.8841 12.8366 1.25378 59.4071 -0.598919 1.07568 -8.00695 4.46483
-28.0968 58.1345 -31.7119 -182.838 -86.3582 195.514 -4.38921 39.7074 0.854991 -2.54956 -10.0586 -0.902431 1.33738 11.9736 0.966935 0.421681 -52.8597 1.07883 -0.0 0.0 0.0 -0.0 0.0 0.0 2.2927e-14 -1.33978e-12 -3.74748e-14 72.3271 30.7465 13.2236 -20.5207 -13.6809 39.9599 -0.12817 -10.1544 -1.4424 1.42953e-09 4.37203e-09 -2.2295e-09 2.50326e-09 7.56468e-09 -3.84599e-09 1.42953e-09 4.37203e-09 -2.2295e-09 7.73091 5.47488 0.417314 1.42953e-09 4.37203e-09 -2.22949e-09 2.90554 0.965183 0.102902 1.42953e-09 4.37203e-09 -2.22949e-09 10.2786 0.731801 0.0259123 1.42953e-09 4.37204e-09 -2.22948e-09 2.22167 -0.733487 -0.20892 2.28664e-14 -1.33977e-12 -3.76744e-14 -69.6007 24.7483 -11.1161 18.7311 -11.4948 -35.6819 1.01874 -27.399 4.17748 -1.11643e-09 2.15927e-09 7.28202e-10 -1.96318e-09 3.71896e-09 1.23943e-09 -1.11643e-09 2.15927e-09 7.28205e-10 -7.73091 5.47488 -0.417314 -1.11643e-09 2.15927e-09 7.2819e-10 -2.90554 0.965183 -0.102902 -1.11643e-09 2.15927e-09 7.28202e-10 -10.2786 0.731801 -0.0259123 -1.11643e-09 2.15927e-09 7.28193e-10 -2.22167 -0.733487 0.20892 -2.03217e-16 0.0 -3.88251e-19 -5.0132 -44.9184 -2.14435 -166.896 84.9192 167.402 -0.246764 -6.77435 1.1538 2.03217e-16 0.0 3.88251e-19 6.85727 -73.6067 14.0634 1.28372 60.0041 -0.691899 1.04102 -8.36474 4.09759
-28.8682 58.2339 -31.573 -183.685 -86.2591 196.369 -4.3458 39.6673 0.839642 -2.46831 -10.0862 -0.90335 1.31047 11.9708 0.993712 0.436343 -52.7627 1.15364 -0.0 0.0 0.0 -0.0 0.0 0.0 2.58924e-14 -9.96311e-13 -1.3418e-14 72.3548 30.7046 13.2317 -20.5367 -13.702 39.9991 -0.128529 -10.1689 -1.44449 1.34841e-09 4.34748e-09 -2.16785e-09 2.36243e-09 7.52217e-09 -3.73958e-09 1.34841e-09 4.34748e-09 -2.16784e-09 7.73091 5.47488 0.417314 1.34841e-09 4.34748e-09 -2.16783e-09 2.90554 0.965183 0.102902 1.34841e-09 4.34748e-09 -2.16784e-09 10.2786 0.731801 0.0259123 1.34841e-09 4.34748e-09 -2.16782e-09 2.22167 -0.733487 -0.20892 2.57933e-14 -9.96306e-13 -1.36168e-14 -69.5136 24.7571 -11.1782 18.7497 -11.516 -35.7245 1.02411 -27.464 4.18912 -1.08221e-09 2.11465e-09 6.07225e-10 -1.90162e-09 3.64149e-09 1.03035e-09 -1.08221e-09 2.11465e-09 6.07228e-10 -7.73091 5.47488 -0.417314 -1.0822e-09 2.11464e-09 6.07212e-10 -2.90554 0.965183 -0.102902 -1.08221e-09 2.11465e-09 6.07225e-10 -10.2786 0.731801 -0.0259123 -1.0822e-09 2.11465e-09 6.07216e-10 -2.22167 -0.733487 0.20892 -2.03217e-16 0.0 -3.88251e-19 -5.53155 -45.3094 -2.41525 -168.926 83.9274 169.476 -0.314612 -4.61684 1.04001 2.03217e-16 0.0 3.88251e-19 7.53258 -73.2946 15.1266 1.3098 60.5588 -0.788481 1.00553 -8.76447 3.71991
